# xmcd
#
# Track frame offsets: 
#        150
#        17739
#        35813
#        52056
#        66618
#        79121
#        92619
#        106938
#        121376
#        135660
#        150021
#        165974
#        179784
#        195423
#        210274
#        226231
#
# Disc length: 3234 seconds
#
# Revision: 3
# Processed by: cddbd v1.5.2PL0 Copyright (c) Steve Scherf et al.
# Submitted via: ExactAudioCopyFreeDBPlugin 1.0
#
DISCID=cd0ca010
DTITLE=John Lee Hooker - Past Perfect, Disc 01- Boogie Chillen
DYEAR=2001
DGENRE=Blues
TTITLE0=Leavin' Chicago
TTITLE1=Wednesday Evening Blues
TTITLE2=My First Wife Left Me
TTITLE3=Sally Mae
TTITLE4=War Is over (Goodbye California)
TTITLE5=She Was in Chicago
TTITLE6=Boogie Chillen
TTITLE7=Henry's Swing Club
TTITLE8=Stomp Boogie
TTITLE9=Who's Been Jiving You
TTITLE10=Black Man Blues
TTITLE11=Shake Your Boogie
TTITLE12=Poor Slim
TTITLE13=Mercy Blues
TTITLE14=Boogie Woogie
TTITLE15=Helpless Blues
EXTD=
EXTT0=
EXTT1=
EXTT2=
EXTT3=
EXTT4=
EXTT5=
EXTT6=
EXTT7=
EXTT8=
EXTT9=
EXTT10=
EXTT11=
EXTT12=
EXTT13=
EXTT14=
EXTT15=
PLAYORDER=
